<svg width="194" height="120" viewBox="0 0 194 120" fill="none" xmlns="http://www.w3.org/2000/svg">
<path d="M0.501064 106.5C0.559863 92.6778 3.05627 78.9995 7.85178 66.2286C12.7051 53.3038 19.8176 41.5629 28.7811 31.6754C37.7445 21.7879 48.3829 13.9477 60.0875 8.59966C71.7919 3.25173 84.3347 0.499998 97 0.5C109.665 0.500002 122.208 3.25173 133.913 8.59967C145.617 13.9477 156.256 21.7879 165.219 31.6754C174.182 41.563 181.295 53.3038 186.148 66.2287C190.944 78.9996 193.44 92.6778 193.499 106.5L126.696 106.5C126.728 105.16 126.883 103.838 127.04 102.501C127.127 101.755 127.215 101.005 127.283 100.245C127.483 97.9892 127.491 95.7081 126.657 93.4871C125.048 89.2018 122.689 85.305 119.711 82.0204C116.733 78.7358 113.196 76.1273 109.298 74.3466C105.401 72.5658 101.222 71.6485 97 71.6485C92.7781 71.6485 88.5989 72.5658 84.7016 74.3466C80.8044 76.1273 77.2667 78.7358 74.289 82.0204C71.3114 85.305 68.9517 89.2018 67.3425 93.4871C65.7912 97.6183 64.9662 102.034 64.9088 106.5L0.501064 106.5Z" stroke="#F9FAFB"/>
<path d="M92.3987 90.9H83.6237V96.6C84.0071 96.0667 84.5737 95.6333 85.3237 95.3C86.0737 94.95 86.8821 94.775 87.7487 94.775C89.1321 94.775 90.2571 95.0667 91.1237 95.65C91.9904 96.2167 92.6071 96.9583 92.9737 97.875C93.3571 98.775 93.5487 99.7333 93.5487 100.75C93.5487 101.95 93.3237 103.025 92.8737 103.975C92.4237 104.925 91.7321 105.675 90.7987 106.225C89.8821 106.775 88.7404 107.05 87.3737 107.05C85.6237 107.05 84.2071 106.6 83.1237 105.7C82.0404 104.8 81.3821 103.6 81.1487 102.1H83.3737C83.5904 103.05 84.0487 103.792 84.7487 104.325C85.4487 104.858 86.3321 105.125 87.3987 105.125C88.7154 105.125 89.7071 104.733 90.3737 103.95C91.0404 103.15 91.3737 102.1 91.3737 100.8C91.3737 99.5 91.0404 98.5 90.3737 97.8C89.7071 97.0833 88.7237 96.725 87.4237 96.725C86.5404 96.725 85.7654 96.9417 85.0987 97.375C84.4487 97.7917 83.9737 98.3667 83.6737 99.1H81.5237V88.9H92.3987V90.9ZM99.297 103.85L96.497 110.575H94.972L96.797 103.85H99.297ZM113.053 90.9H104.278V96.6C104.661 96.0667 105.228 95.6333 105.978 95.3C106.728 94.95 107.536 94.775 108.403 94.775C109.786 94.775 110.911 95.0667 111.778 95.65C112.645 96.2167 113.261 96.9583 113.628 97.875C114.011 98.775 114.203 99.7333 114.203 100.75C114.203 101.95 113.978 103.025 113.528 103.975C113.078 104.925 112.386 105.675 111.453 106.225C110.536 106.775 109.395 107.05 108.028 107.05C106.278 107.05 104.861 106.6 103.778 105.7C102.695 104.8 102.036 103.6 101.803 102.1H104.028C104.245 103.05 104.703 103.792 105.403 104.325C106.103 104.858 106.986 105.125 108.053 105.125C109.37 105.125 110.361 104.733 111.028 103.95C111.695 103.15 112.028 102.1 112.028 100.8C112.028 99.5 111.695 98.5 111.028 97.8C110.361 97.0833 109.378 96.725 108.078 96.725C107.195 96.725 106.42 96.9417 105.753 97.375C105.103 97.7917 104.628 98.3667 104.328 99.1H102.178V88.9H113.053V90.9Z" fill="white"/>
</svg>
